<svg width="159" height="53" viewBox="0 0 159 53" fill="none" xmlns="http://www.w3.org/2000/svg">
<g filter="url(#filter0_d_2_3992)">
<path d="M45.0938 25.5625C45.4688 24.8125 46.5312 24.8438 46.875 25.5625L48.9375 29.7188L53.5 30.375C54.3125 30.5 54.625 31.5 54.0312 32.0938L50.75 35.3125L51.5312 39.8438C51.6562 40.6562 50.7812 41.2812 50.0625 40.9062L46 38.75L41.9062 40.9062C41.1875 41.2812 40.3125 40.6562 40.4375 39.8438L41.2188 35.3125L37.9375 32.0938C37.3438 31.5 37.6562 30.5 38.4688 30.375L43.0625 29.7188L45.0938 25.5625Z" fill="#FFBB00"/>
<path d="M12.0938 25.5625C12.4688 24.8125 13.5312 24.8438 13.875 25.5625L15.9375 29.7188L20.5 30.375C21.3125 30.5 21.625 31.5 21.0312 32.0938L17.75 35.3125L18.5312 39.8438C18.6562 40.6562 17.7812 41.2812 17.0625 40.9062L13 38.75L8.90625 40.9062C8.1875 41.2812 7.3125 40.6562 7.4375 39.8438L8.21875 35.3125L4.9375 32.0938C4.34375 31.5 4.65625 30.5 5.46875 30.375L10.0625 29.7188L12.0938 25.5625Z" fill="#FFBB00"/>
<path d="M78.427 25.5625C78.802 24.8125 79.8645 24.8438 80.2083 25.5625L82.2708 29.7188L86.8333 30.375C87.6458 30.5 87.9583 31.5 87.3645 32.0938L84.0833 35.3125L84.8645 39.8438C84.9895 40.6562 84.1145 41.2812 83.3958 40.9062L79.3333 38.75L75.2395 40.9062C74.5208 41.2812 73.6458 40.6562 73.7708 39.8438L74.552 35.3125L71.2708 32.0938C70.677 31.5 70.9895 30.5 71.802 30.375L76.3958 29.7188L78.427 25.5625Z" fill="#FFBB00"/>
<path d="M111.76 25.5625C112.135 24.8125 113.198 24.8438 113.542 25.5625L115.604 29.7188L120.167 30.375C120.979 30.5 121.292 31.5 120.698 32.0938L117.417 35.3125L118.198 39.8438C118.323 40.6562 117.448 41.2812 116.729 40.9062L112.667 38.75L108.573 40.9062C107.854 41.2812 106.979 40.6562 107.104 39.8438L107.885 35.3125L104.604 32.0938C104.01 31.5 104.323 30.5 105.135 30.375L109.729 29.7188L111.76 25.5625Z" fill="#FFBB00"/>
<path d="M145.094 25.5625C145.469 24.8125 146.531 24.8438 146.875 25.5625L148.938 29.7188L153.5 30.375C154.312 30.5 154.625 31.5 154.031 32.0938L150.75 35.3125L151.531 39.8438C151.656 40.6562 150.781 41.2812 150.062 40.9062L146 38.75L141.906 40.9062C141.188 41.2812 140.312 40.6562 140.438 39.8438L141.219 35.3125L137.938 32.0938C137.344 31.5 137.656 30.5 138.469 30.375L143.062 29.7188L145.094 25.5625Z" fill="#FFBB00"/>
</g>
<defs>
<filter id="filter0_d_2_3992" x="0.34375" y="24.8125" width="158.281" height="24.4688" filterUnits="userSpaceOnUse" color-interpolation-filters="sRGB">
<feFlood flood-opacity="0" result="BackgroundImageFix"/>
<feColorMatrix in="SourceAlpha" type="matrix" values="0 0 0 0 0 0 0 0 0 0 0 0 0 0 0 0 0 0 127 0" result="hardAlpha"/>
<feOffset dy="4"/>
<feGaussianBlur stdDeviation="2"/>
<feComposite in2="hardAlpha" operator="out"/>
<feColorMatrix type="matrix" values="0 0 0 0 0 0 0 0 0 0 0 0 0 0 0 0 0 0 0.25 0"/>
<feBlend mode="normal" in2="BackgroundImageFix" result="effect1_dropShadow_2_3992"/>
<feBlend mode="normal" in="SourceGraphic" in2="effect1_dropShadow_2_3992" result="shape"/>
</filter>
</defs>
</svg>
